<svg width="869" height="259" viewBox="0 0 869 259" fill="none" xmlns="http://www.w3.org/2000/svg">
<path d="M800.318 53.315H681.929C678.215 53.315 676.683 57.9868 679.701 60.1112L721.1 89.2567C723.007 90.5996 724.007 92.863 723.702 95.1468L720.35 120.219C719.901 123.582 723.87 125.756 726.552 123.616L803.534 62.1934C807.256 59.2241 805.115 53.315 800.318 53.315Z" fill="#05DF96"/>
<path d="M100.389 175.294C90.4921 175.294 81.9151 173.095 74.6576 168.697C67.51 164.188 62.0119 157.59 58.1632 148.903C54.3146 140.216 52.3902 129.385 52.3902 116.41C52.3902 103.544 54.3146 92.6578 58.1632 83.7508C62.0119 74.7339 67.51 67.9163 74.6576 63.2979C81.9151 58.5695 90.4921 56.2053 100.389 56.2053C110.285 56.2053 118.587 58.4046 125.295 62.803C132.003 67.2015 137.281 73.6343 141.13 82.1014L126.45 90.3486C124.36 84.7405 121.172 80.287 116.883 76.9881C112.704 73.5793 107.206 71.8749 100.389 71.8749C91.2618 71.8749 84.1143 75.0638 78.9461 81.4416C73.7779 87.8194 71.1938 96.4515 71.1938 107.338V124.987C71.1938 135.873 73.7779 144.395 78.9461 150.553C84.1143 156.601 91.2618 159.625 100.389 159.625C107.316 159.625 113.034 157.81 117.543 154.182C122.051 150.553 125.405 145.824 127.604 139.996L141.789 148.573C137.941 156.821 132.553 163.363 125.625 168.202C118.697 172.93 110.285 175.294 100.389 175.294ZM159.58 206.304V192.283H173.93L179.208 176.944L147.869 87.7095H164.858L182.672 139.832L187.456 157.315H188.28L193.558 139.832L211.537 87.7095H227.702L191.249 190.964C189.93 194.703 188.39 197.672 186.631 199.871C184.981 202.18 182.782 203.829 180.033 204.819C177.284 205.809 173.655 206.304 169.147 206.304H159.58ZM283.41 175.294C277.692 175.294 272.744 173.92 268.565 171.171C264.386 168.312 261.253 164.353 259.163 159.295H258.339V173.315H241.514V51.257H258.339V101.73H259.163C261.033 96.5614 264.112 92.6028 268.4 89.8537C272.689 87.1047 277.692 85.7301 283.41 85.7301C290.667 85.7301 296.825 87.5445 301.884 91.1733C306.942 94.6921 310.845 99.8053 313.595 106.513C316.344 113.111 317.718 121.083 317.718 130.43C317.718 139.777 316.344 147.804 313.595 154.511C310.845 161.219 306.942 166.387 301.884 170.016C296.825 173.535 290.667 175.294 283.41 175.294ZM278.297 160.779C284.894 160.779 290.118 158.69 293.966 154.511C297.815 150.223 299.739 144.67 299.739 137.852V123.172C299.739 116.245 297.815 110.692 293.966 106.513C290.118 102.334 284.894 100.245 278.297 100.245C274.668 100.245 271.314 100.905 268.235 102.224C265.266 103.434 262.847 105.193 260.978 107.503C259.218 109.702 258.339 112.341 258.339 115.42V144.945C258.339 148.244 259.218 151.103 260.978 153.522C262.847 155.831 265.266 157.645 268.235 158.965C271.314 160.174 274.668 160.779 278.297 160.779ZM370.313 175.294C362.286 175.294 355.303 173.48 349.365 169.851C343.537 166.112 338.974 160.889 335.675 154.182C332.486 147.474 330.892 139.557 330.892 130.43C330.892 121.413 332.486 113.551 335.675 106.843C338.864 100.135 343.372 94.967 349.2 91.3382C355.028 87.5995 361.956 85.7301 369.983 85.7301C378.23 85.7301 385.158 87.5995 390.766 91.3382C396.374 95.0769 400.608 100.19 403.467 106.678C406.436 113.056 407.92 120.203 407.92 128.121V134.718H348.541V137.852C348.541 144.67 350.52 150.278 354.479 154.676C358.547 159.075 364.32 161.274 371.798 161.274C377.076 161.274 381.584 160.065 385.323 157.645C389.062 155.226 392.141 151.982 394.56 147.914L404.786 157.48C401.707 162.759 397.199 167.047 391.261 170.346C385.323 173.645 378.34 175.294 370.313 175.294ZM348.541 123.337H390.106V121.688C390.106 117.179 389.282 113.221 387.632 109.812C386.093 106.403 383.783 103.764 380.704 101.895C377.735 100.025 374.217 99.0905 370.148 99.0905C365.86 99.0905 362.066 100.08 358.767 102.06C355.578 104.039 353.049 106.788 351.18 110.307C349.42 113.716 348.541 117.674 348.541 122.183V123.337ZM426.515 173.315V87.7095H443.339V104.369H444.164C445.043 101.51 446.473 98.8156 448.452 96.2865C450.432 93.7574 453.016 91.7231 456.205 90.1836C459.503 88.5342 463.407 87.7095 467.916 87.7095H472.864V104.039H465.606C460.878 104.039 456.864 104.644 453.566 105.853C450.267 106.953 447.738 108.492 445.978 110.472C444.219 112.451 443.339 114.925 443.339 117.894V173.315H426.515ZM504.682 173.315C498.964 173.315 494.621 171.776 491.652 168.697C488.793 165.618 487.363 161.494 487.363 156.326V51.257H504.188V159.295H516.228V173.315H504.682ZM532.265 173.315V87.7095H549.09V173.315H532.265ZM540.677 71.3801C537.159 71.3801 534.575 70.5554 532.925 68.9059C531.386 67.1465 530.616 64.9473 530.616 62.3082V59.6691C530.616 57.03 531.386 54.8858 532.925 53.2363C534.575 51.5869 537.159 50.7622 540.677 50.7622C544.196 50.7622 546.725 51.5869 548.265 53.2363C549.914 54.8858 550.739 57.03 550.739 59.6691V62.3082C550.739 64.9473 549.914 67.1465 548.265 68.9059C546.725 70.5554 544.196 71.3801 540.677 71.3801ZM578.238 173.315V101.73H564.878V87.7095H578.238V72.8646C578.238 66.1569 579.997 60.8787 583.516 57.03C587.035 53.1814 592.313 51.257 599.351 51.257H613.206V65.2772H595.227V87.7095H613.206V101.73H595.227V173.315H578.238ZM650.143 173.315C644.315 173.315 639.862 171.721 636.783 168.532C633.704 165.343 632.164 160.999 632.164 155.501V101.73H618.804V87.7095H626.061C629.14 87.7095 631.23 87.0497 632.329 85.7301C633.429 84.4106 633.979 82.3213 633.979 79.4623V64.1226H649.153V87.7095H667.297V101.73H649.153V159.295H665.978V173.315H650.143Z" fill="#07245D"/>
</svg>
