<svg width="870" height="259" viewBox="0 0 870 259" fill="none" xmlns="http://www.w3.org/2000/svg">
<path d="M800.991 53.315H682.602C678.888 53.315 677.356 57.9868 680.374 60.1112L721.773 89.2567C723.681 90.5996 724.68 92.863 724.375 95.1468L721.023 120.219C720.574 123.582 724.543 125.756 727.225 123.616L804.207 62.1934C807.929 59.2241 805.789 53.315 800.991 53.315Z" fill="#05DF96"/>
<path d="M101.062 175.294C91.1651 175.294 82.588 173.095 75.3305 168.697C68.183 164.188 62.6849 157.59 58.8362 148.903C54.9875 140.216 53.0632 129.385 53.0632 116.41C53.0632 103.544 54.9875 92.6578 58.8362 83.7508C62.6849 74.7339 68.183 67.9163 75.3305 63.2979C82.588 58.5695 91.1651 56.2053 101.062 56.2053C110.958 56.2053 119.26 58.4046 125.968 62.803C132.676 67.2015 137.954 73.6343 141.803 82.1014L127.123 90.3486C125.033 84.7405 121.845 80.287 117.556 76.9881C113.377 73.5793 107.879 71.8749 101.062 71.8749C91.9348 71.8749 84.7873 75.0638 79.6191 81.4416C74.4508 87.8194 71.8667 96.4515 71.8667 107.338V124.987C71.8667 135.873 74.4508 144.395 79.6191 150.553C84.7873 156.601 91.9348 159.625 101.062 159.625C107.989 159.625 113.707 157.81 118.216 154.182C122.724 150.553 126.078 145.824 128.277 139.996L142.462 148.573C138.614 156.821 133.226 163.363 126.298 168.202C119.37 172.93 110.958 175.294 101.062 175.294ZM160.253 206.304V192.283H174.603L179.881 176.944L148.542 87.7095H165.531L183.345 139.832L188.128 157.315H188.953L194.231 139.832L212.21 87.7095H228.375L191.922 190.964C190.603 194.703 189.063 197.672 187.304 199.871C185.654 202.18 183.455 203.829 180.706 204.819C177.957 205.809 174.328 206.304 169.82 206.304H160.253ZM284.083 175.294C278.365 175.294 273.417 173.92 269.238 171.171C265.059 168.312 261.926 164.353 259.836 159.295H259.012V173.315H242.187V51.257H259.012V101.73H259.836C261.706 96.5614 264.785 92.6028 269.073 89.8537C273.362 87.1047 278.365 85.7301 284.083 85.7301C291.34 85.7301 297.498 87.5445 302.557 91.1733C307.615 94.6921 311.518 99.8053 314.267 106.513C317.017 113.111 318.391 121.083 318.391 130.43C318.391 139.777 317.017 147.804 314.267 154.511C311.518 161.219 307.615 166.387 302.557 170.016C297.498 173.535 291.34 175.294 284.083 175.294ZM278.97 160.779C285.567 160.779 290.791 158.69 294.639 154.511C298.488 150.223 300.412 144.67 300.412 137.852V123.172C300.412 116.245 298.488 110.692 294.639 106.513C290.791 102.334 285.567 100.245 278.97 100.245C275.341 100.245 271.987 100.905 268.908 102.224C265.939 103.434 263.52 105.193 261.651 107.503C259.891 109.702 259.012 112.341 259.012 115.42V144.945C259.012 148.244 259.891 151.103 261.651 153.522C263.52 155.831 265.939 157.645 268.908 158.965C271.987 160.174 275.341 160.779 278.97 160.779ZM370.986 175.294C362.959 175.294 355.976 173.48 350.038 169.851C344.21 166.112 339.647 160.889 336.348 154.182C333.159 147.474 331.565 139.557 331.565 130.43C331.565 121.413 333.159 113.551 336.348 106.843C339.537 100.135 344.045 94.967 349.873 91.3382C355.701 87.5995 362.629 85.7301 370.656 85.7301C378.903 85.7301 385.831 87.5995 391.439 91.3382C397.047 95.0769 401.281 100.19 404.14 106.678C407.109 113.056 408.593 120.203 408.593 128.121V134.718H349.214V137.852C349.214 144.67 351.193 150.278 355.151 154.676C359.22 159.075 364.993 161.274 372.471 161.274C377.749 161.274 382.257 160.065 385.996 157.645C389.735 155.226 392.814 151.982 395.233 147.914L405.459 157.48C402.38 162.759 397.872 167.047 391.934 170.346C385.996 173.645 379.013 175.294 370.986 175.294ZM349.214 123.337H390.779V121.688C390.779 117.179 389.954 113.221 388.305 109.812C386.766 106.403 384.456 103.764 381.377 101.895C378.408 100.025 374.89 99.0905 370.821 99.0905C366.533 99.0905 362.739 100.08 359.44 102.06C356.251 104.039 353.722 106.788 351.853 110.307C350.093 113.716 349.214 117.674 349.214 122.183V123.337ZM427.188 173.315V87.7095H444.012V104.369H444.837C445.716 101.51 447.146 98.8156 449.125 96.2865C451.105 93.7574 453.689 91.7231 456.878 90.1836C460.176 88.5342 464.08 87.7095 468.589 87.7095H473.537V104.039H466.279C461.551 104.039 457.537 104.644 454.239 105.853C450.94 106.953 448.411 108.492 446.651 110.472C444.892 112.451 444.012 114.925 444.012 117.894V173.315H427.188ZM505.355 173.315C499.637 173.315 495.294 171.776 492.325 168.697C489.466 165.618 488.036 161.494 488.036 156.326V51.257H504.861V159.295H516.901V173.315H505.355ZM532.938 173.315V87.7095H549.763V173.315H532.938ZM541.35 71.3801C537.832 71.3801 535.248 70.5554 533.598 68.9059C532.059 67.1465 531.289 64.9473 531.289 62.3082V59.6691C531.289 57.03 532.059 54.8858 533.598 53.2363C535.248 51.5869 537.832 50.7622 541.35 50.7622C544.869 50.7622 547.398 51.5869 548.938 53.2363C550.587 54.8858 551.412 57.03 551.412 59.6691V62.3082C551.412 64.9473 550.587 67.1465 548.938 68.9059C547.398 70.5554 544.869 71.3801 541.35 71.3801ZM578.911 173.315V101.73H565.551V87.7095H578.911V72.8646C578.911 66.1569 580.67 60.8787 584.189 57.03C587.708 53.1814 592.986 51.257 600.024 51.257H613.879V65.2772H595.9V87.7095H613.879V101.73H595.9V173.315H578.911ZM650.816 173.315C644.988 173.315 640.535 171.721 637.456 168.532C634.377 165.343 632.837 160.999 632.837 155.501V101.73H619.477V87.7095H626.734C629.813 87.7095 631.903 87.0497 633.002 85.7301C634.102 84.4106 634.652 82.3213 634.652 79.4623V64.1226H649.826V87.7095H667.97V101.73H649.826V159.295H666.651V173.315H650.816Z" fill="white"/>
</svg>
